<svg width="104" height="25" viewBox="0 0 104 25" fill="none" xmlns="http://www.w3.org/2000/svg">
<g id="VcI0GdILgTMr3sKFwvCT6fvAgKy4x36SSAQXB1dT.svg">
<path id="Vector" d="M41.327 9.1543V16.549H39.7002V9.1543H41.327Z" fill="#808080"/>
<path id="Vector_2" d="M48.2404 9.1543V10.5223H46.022V16.549H44.3952V10.5593H42.1768V9.1543H48.2404Z" fill="#808080"/>
<path id="Vector_3" d="M52.0636 9.18738C52.0696 9.17508 52.0791 9.16473 52.0906 9.15753C52.1026 9.15038 52.1162 9.14658 52.1302 9.14668C52.3002 9.14668 52.4701 9.16888 52.6401 9.17628C52.8101 9.18368 52.9802 9.17628 53.1507 9.17628C53.8307 9.17628 54.5112 9.11343 55.1912 9.12823C55.7292 9.14163 56.2636 9.21478 56.7851 9.34633C57.1476 9.43883 57.4786 9.62793 57.7426 9.89358C58.0051 10.2055 58.1571 10.5954 58.1751 11.0028C58.2211 11.4284 58.1481 11.8584 57.9641 12.2451C57.8731 12.4376 57.7452 12.6102 57.5872 12.7529C57.4292 12.8957 57.2446 13.0058 57.0436 13.077C57.3036 13.1678 57.5336 13.3276 57.7096 13.5393C57.8856 13.751 58.0001 14.0066 58.0421 14.2786C58.1641 14.811 58.1271 15.3878 58.2086 15.9129C58.2306 16.1644 58.3241 16.4044 58.4781 16.6043H56.8146C56.5891 16.0164 56.6666 15.3583 56.5556 14.7556C56.5251 14.5122 56.4236 14.2833 56.2636 14.0975C56.1101 13.9526 55.9192 13.8528 55.7127 13.8091C55.0397 13.639 54.3296 13.8091 53.6386 13.7351V16.5488H52.0486V9.49053C52.0486 9.42398 52.0191 9.26133 52.0636 9.18738ZM53.6386 10.4482V12.4817H55.1912C55.5502 12.5042 55.9087 12.4274 56.2267 12.2599C56.4857 12.112 56.5961 11.8532 56.5961 11.4095C56.6186 11.258 56.5951 11.1033 56.5296 10.9651C56.4636 10.8268 56.3582 10.7113 56.2267 10.633C55.9187 10.4737 55.5746 10.3972 55.2281 10.4112H53.6386V10.4482Z" fill="#808080"/>
<path id="Vector_4" d="M64.2877 16.5491H62.8087C62.7717 16.4012 62.7347 16.2533 62.6977 16.0315C62.4677 16.2539 62.1952 16.4275 61.8967 16.5419C61.5982 16.6563 61.2792 16.709 60.9597 16.697C60.4527 16.7267 59.9527 16.5688 59.5547 16.2533C59.3847 16.1081 59.2497 15.9261 59.1602 15.7212C59.0702 15.5163 59.0282 15.2937 59.0372 15.0701C59.0242 14.8156 59.0737 14.5616 59.1812 14.3307C59.2912 14.1305 59.4452 13.9584 59.6327 13.8278C60.1647 13.4581 60.8602 13.4359 61.4812 13.3435C61.7962 13.3128 62.1067 13.2445 62.4057 13.1401C62.4872 13.1098 62.5567 13.0536 62.6032 12.9802C62.6497 12.9068 62.6712 12.8201 62.6642 12.7334C62.6642 12.2528 62.3317 12.0309 61.7032 12.0309C61.4432 12.0155 61.1852 12.08 60.9637 12.2158C60.8742 12.2969 60.8017 12.3948 60.7502 12.5039C60.6992 12.613 60.6697 12.7312 60.6642 12.8517H59.2962C59.3702 11.6316 60.2202 11.04 61.7732 11.04C63.3262 11.04 64.1027 11.6316 64.1027 12.7778V15.1071C64.0457 15.5957 64.1087 16.0908 64.2877 16.5491ZM62.6607 13.9609C62.3302 14.1053 61.9822 14.2048 61.6252 14.2567C61.3267 14.2806 61.0362 14.3689 60.7752 14.5155C60.6992 14.5858 60.6402 14.672 60.6017 14.7679C60.5632 14.8638 60.5467 14.9671 60.5532 15.0701C60.5467 15.1678 60.5637 15.2656 60.6022 15.3555C60.6407 15.4455 60.6997 15.5251 60.7752 15.5878C60.9457 15.7146 61.1542 15.7797 61.3667 15.7726C61.7177 15.7879 62.0612 15.6689 62.3277 15.4399C62.4462 15.3246 62.5402 15.1865 62.6037 15.034C62.6672 14.8815 62.6992 14.7177 62.6977 14.5525V13.9609H62.6607Z" fill="#808080"/>
<path id="Vector_5" d="M68.2069 11.1873V12.1855H67.1344V15.0325C67.1424 15.1111 67.1674 15.1869 67.2084 15.2544C67.2524 15.3226 67.3174 15.3746 67.3934 15.4023C67.5134 15.4369 67.6389 15.4494 67.7634 15.4392C67.9119 15.4487 68.0614 15.4362 68.2069 15.4023V16.5115C67.9119 16.5394 67.6159 16.5517 67.3194 16.5484C66.6909 16.5484 66.2474 16.4375 66.0254 16.2157C65.8034 15.9938 65.6929 15.5501 65.6929 14.9216V12.1486H64.7314V11.1503H65.6189V9.52344H67.0979V11.1503H68.2069V11.1873Z" fill="#808080"/>
<path id="Vector_6" d="M70.4253 9.1543V10.4114H68.9463V9.1543H70.4253ZM70.4253 11.1878V16.549H68.9463V11.1878H70.4253Z" fill="#808080"/>
<path id="Vector_7" d="M76.5998 16.5489H75.1208V13.4431C75.1338 13.1485 75.0698 12.8555 74.9358 12.5928C74.8478 12.4847 74.7338 12.4009 74.6043 12.3492C74.4753 12.2974 74.3348 12.2795 74.1963 12.297C73.4198 12.297 73.0503 12.7776 73.0503 13.702V16.5489H71.5713V11.1878H72.9763V11.9272C73.1768 11.645 73.4433 11.4164 73.7528 11.2616C74.0623 11.1069 74.4053 11.0307 74.7513 11.0399C74.9998 11.0219 75.2498 11.0553 75.4848 11.138C75.7203 11.2207 75.9363 11.3509 76.1193 11.5205C76.2888 11.7108 76.4188 11.9331 76.5013 12.1744C76.5838 12.4157 76.6173 12.6711 76.5998 12.9255V16.5489Z" fill="#808080"/>
<path id="Vector_8" d="M82.8478 11.1876V15.9942C82.8478 16.8815 82.6258 17.5101 82.1823 17.9168C81.6198 18.3703 80.9068 18.5947 80.1858 18.5454C78.6698 18.5454 77.8193 17.9908 77.6713 16.8815H79.1503C79.1653 16.9867 79.2028 17.0873 79.2603 17.1766C79.3178 17.2659 79.3938 17.3418 79.4833 17.3992C79.7113 17.516 79.9673 17.5672 80.2228 17.5471C80.7033 17.5471 80.9988 17.4362 81.1468 17.2143C81.3288 16.9004 81.4183 16.5416 81.4058 16.179V15.5875C81.2228 15.847 80.9788 16.0572 80.6948 16.1992C80.4108 16.3411 80.0963 16.4104 79.7788 16.4009C79.4663 16.4185 79.1538 16.3643 78.8658 16.2425C78.5773 16.1208 78.3203 15.9346 78.1153 15.6984C77.6783 15.1554 77.4548 14.4718 77.4863 13.7758C77.4548 13.0684 77.6778 12.3731 78.1153 11.8162C78.3283 11.5775 78.5908 11.3878 78.8843 11.2602C79.1783 11.1325 79.4958 11.0699 79.8158 11.0767C80.1333 11.0734 80.4483 11.1364 80.7403 11.2616C81.0143 11.4243 81.2428 11.6531 81.4058 11.9271V11.2246H82.8478V11.1876ZM81.1098 12.5926C80.9973 12.4587 80.8553 12.3525 80.6948 12.282C80.5348 12.2115 80.3603 12.1786 80.1858 12.1859C80.0113 12.1826 79.8383 12.2172 79.6788 12.2874C79.5188 12.3577 79.3768 12.4618 79.2613 12.5926C79.0203 12.9244 78.9028 13.3297 78.9283 13.7388C78.9023 14.1365 79.0203 14.5303 79.2613 14.848C79.3688 14.988 79.5098 15.0987 79.6713 15.1698C79.8328 15.2409 80.0098 15.2701 80.1858 15.2547C80.3548 15.2591 80.5228 15.2247 80.6763 15.1542C80.8303 15.0837 80.9658 14.979 81.0728 14.848C81.3078 14.5132 81.4248 14.1102 81.4058 13.7018C81.4503 13.308 81.3448 12.912 81.1098 12.5926Z" fill="#808080"/>
<path id="Vector_9" d="M34.3197 13.5583L34.268 13.6026L33.1292 14.5011L33.0405 14.5714C31.4099 15.8654 31.3766 16.7306 33.6912 18.6606L32.2122 17.6919L30.7333 16.4459C30.7333 16.4459 27.7384 14.1351 29.8829 12.0091C29.9347 11.9573 30.1343 11.7872 30.1824 11.7318L31.824 10.4118C32.2413 10.0823 32.7723 9.93213 33.3003 9.99418C33.8283 10.0562 34.3101 10.3255 34.6396 10.7427C34.969 11.16 35.1193 11.691 35.0572 12.219C34.9952 12.7471 34.7259 13.2288 34.3086 13.5583H34.3197Z" fill="#808080"/>
<path id="Vector_10" d="M33.9173 21.4851C33.7334 21.6937 33.5099 21.8639 33.2599 21.9857C33.0099 22.1076 32.7382 22.1787 32.4606 22.195C31.7211 22.2394 31.1369 21.7661 30.5897 21.3077L29.3363 20.2465L26.7482 18.0725L26.4339 17.8063C26.2308 17.6364 26.0633 17.4282 25.9407 17.1935C25.8182 16.9588 25.7431 16.7023 25.7198 16.4386C25.6964 16.1749 25.7253 15.9092 25.8047 15.6566C25.8841 15.404 26.0124 15.1696 26.1825 14.9667C26.2707 14.8605 26.3699 14.7638 26.4782 14.6783L30.1756 11.75C30.1275 11.8018 30.0721 11.8535 30.0203 11.9127C27.8758 14.0238 30.8744 16.3088 30.8744 16.3088L32.2498 17.4624L33.6733 18.6751C34.0702 19.0106 34.3231 19.4859 34.3795 20.0025C34.4089 20.2682 34.383 20.537 34.3035 20.7922C34.2239 21.0473 34.0925 21.2832 33.9173 21.4851Z" fill="#808080"/>
<path id="Vector_11" d="M22.2705 10.9691L22.4923 10.7917C23.0247 10.3776 23.6015 9.98193 24.0896 9.51977C24.2842 9.36087 24.4425 9.16222 24.5541 8.93712C24.6657 8.71202 24.7279 8.46568 24.7366 8.21463C24.6604 7.72453 24.4222 7.27413 24.06 6.93533C23.9602 6.82073 23.8529 6.70978 23.742 6.59888C23.6311 6.48793 23.4906 6.35483 23.3723 6.22913C23.254 6.10343 23.0876 5.97403 22.9434 5.85938L24.4704 6.96858L25.9678 8.07783C25.9678 8.07783 28.9257 10.3665 26.7554 12.4592C26.7036 12.5146 26.4559 12.7106 26.3856 12.7624L24.7329 14.1304C24.4982 14.3129 24.2258 14.4409 23.9354 14.5049C23.6451 14.5689 23.3441 14.5674 23.0544 14.5005C22.7647 14.4335 22.4936 14.3029 22.2608 14.118C22.028 13.9331 21.8393 13.6986 21.7085 13.4316C21.6342 13.2918 21.5794 13.1426 21.5458 12.9879C21.4847 12.7077 21.4847 12.4177 21.5458 12.1375C21.6037 11.8605 21.721 11.5994 21.8896 11.3722C22.0003 11.2234 22.1282 11.0881 22.2705 10.9691Z" fill="#808080"/>
<path id="Vector_12" d="M22.7174 3.03502C22.8875 2.8346 23.0955 2.66968 23.3294 2.54969C23.5632 2.42969 23.8185 2.35696 24.0805 2.33567C24.3425 2.31438 24.6061 2.34494 24.8563 2.42561C25.1065 2.50627 25.3383 2.63546 25.5385 2.80578L30.1972 6.76565C30.6037 7.1131 30.8558 7.6076 30.898 8.14065C30.9403 8.6737 30.7694 9.20175 30.4227 9.6089C30.3334 9.713 30.2344 9.80835 30.127 9.8936L26.4037 12.7961C26.4555 12.7443 26.5072 12.6925 26.5664 12.6408C28.7257 10.5481 25.7419 8.2335 25.7419 8.2335L24.3739 7.07255L22.9504 5.8598C22.7498 5.68935 22.5848 5.4811 22.4648 5.24693C22.3448 5.01274 22.272 4.75719 22.2507 4.49489C22.2294 4.23258 22.26 3.96865 22.3407 3.71817C22.4215 3.46768 22.5507 3.23555 22.7211 3.03502H22.7174Z" fill="#808080"/>
</g>
</svg>
